<svg width="39" height="31" viewBox="0 0 39 31" fill="none" xmlns="http://www.w3.org/2000/svg">
<path d="M19.3184 24.014C17.0479 21.7435 17.0479 18.0638 19.3184 15.7933C20.4528 14.6607 21.9412 14.0917 23.4279 14.0917C24.9146 14.0917 26.403 14.6589 27.5374 15.7933C27.784 16.0399 27.9901 16.3076 28.1839 16.5842C28.3776 16.3094 28.5837 16.0399 28.8303 15.7933C29.9647 14.6607 31.4531 14.0917 32.9398 14.0917C34.4265 14.0917 35.9149 14.6589 37.0493 15.7933C37.1251 15.869 37.1779 15.9589 37.2501 16.0381C39.6528 11.9533 39.1384 6.6266 35.6313 3.1196C33.551 1.041 30.8225 0 28.0958 0C25.369 0 22.6405 1.041 20.5602 3.1213C20.1093 3.5722 19.7306 4.0655 19.3765 4.571C19.0225 4.0655 18.6438 3.5722 18.1928 3.1213C16.1126 1.041 13.384 0 10.6573 0C7.9306 0 5.202 1.041 3.1218 3.1213C-1.0406 7.2837 -1.0406 14.0301 3.1218 18.1924C4.9308 20.0014 15.8765 29.1064 16.6357 29.8656C17.3931 30.623 18.3848 31 19.3765 31C20.3682 31 21.36 30.6213 22.1174 29.8656C22.2953 29.6877 23.0439 29.043 24.0902 28.1517C22.2055 26.5523 19.8997 24.5953 19.3184 24.014Z" fill="#0075FF"/>
</svg>
