<svg width="22" height="17" viewBox="0 0 22 17" fill="none" xmlns="http://www.w3.org/2000/svg">
<path d="M20.0495 1.79461C18.9151 0.660309 17.4267 0.0913086 15.94 0.0913086C14.4533 0.0913086 12.9649 0.658508 11.8305 1.79291C11.5839 2.03951 11.3778 2.30721 11.1841 2.58381C10.9903 2.30721 10.7842 2.03951 10.5376 1.79291C9.4032 0.660308 7.9148 0.0913086 6.4281 0.0913086C4.9414 0.0913086 3.453 0.658508 2.3186 1.79291C0.0480976 4.06341 0.0480976 7.74311 2.3186 10.0136C3.305 11.0001 9.2746 15.9656 9.6886 16.3796C10.1025 16.7935 10.6433 16.9978 11.1841 16.9978C11.7248 16.9978 12.2656 16.7917 12.6796 16.3796C13.0953 15.9656 19.0649 10.9983 20.0495 10.0136C22.32 7.74311 22.32 4.06521 20.0495 1.79461Z" fill="#123578"/>
</svg>
